<svg xmlns="http://www.w3.org/2000/svg" version="1.1" xmlns:xlink="http://www.w3.org/1999/xlink" xmlns:svgjs="http://svgjs.com/svgjs" width="1000" height="1000"><rect width="1000" height="1000" rx="500" ry="500" fill="#f2eb1c"></rect><g transform="matrix(1,0,0,1,0,0)"><svg xmlns="http://www.w3.org/2000/svg" version="1.1" xmlns:xlink="http://www.w3.org/1999/xlink" xmlns:svgjs="http://svgjs.com/svgjs" width="500.000000pt" height="500.000000pt"><svg version="1.0" xmlns="http://www.w3.org/2000/svg" width="500.000000pt" height="500.000000pt" viewBox="0 0 500.000000 500.000000" preserveAspectRatio="xMidYMid meet">

<g transform="translate(0.000000,500.000000) scale(0.100000,-0.100000)" fill="#000000" stroke="none">
<path d="M1134 3759 c-18 -20 -19 -53 -24 -853 l-5 -831 -28 -58 c-51 -103
-148 -141 -302 -119 -122 18 -152 16 -169 -11 -11 -16 -20 -89 -33 -252 -19
-260 -16 -276 47 -307 80 -39 438 -68 605 -50 333 37 515 158 597 397 46 134
48 185 48 1150 0 808 -2 913 -16 933 l-15 22 -343 0 c-336 0 -343 0 -362 -21z"></path>
<path d="M2132 3764 c-15 -10 -22 -25 -22 -46 0 -34 772 -2329 796 -2366 8
-12 26 -27 40 -32 14 -6 162 -10 335 -10 330 0 354 3 379 50 22 42 790 2330
790 2354 0 14 -9 35 -20 46 -19 19 -33 20 -293 20 -297 0 -302 -1 -330 -58 -8
-15 -108 -357 -223 -760 -119 -419 -213 -731 -219 -729 -8 3 -277 863 -445
1426 -13 41 -33 85 -46 98 l-23 23 -348 0 c-299 0 -352 -2 -371 -16z"></path>
</g>
</svg></svg></g></svg>